<?xml version="1.0" encoding="UTF-8" standalone="no"?>
<!DOCTYPE svg PUBLIC "-//W3C//DTD SVG 1.1//EN" "http://www.w3.org/Graphics/SVG/1.1/DTD/svg11.dtd">
<svg width="100%" height="100%" viewBox="0 0 3240 3240" version="1.1" xmlns="http://www.w3.org/2000/svg" xmlns:xlink="http://www.w3.org/1999/xlink" xml:space="preserve" xmlns:serif="http://www.serif.com/" style="fill-rule:evenodd;clip-rule:evenodd;stroke-linejoin:round;stroke-miterlimit:2;">
    <g id="bird" transform="matrix(4.716031,0,0,4.714778,-444.757299,-195.716119)">
        <path d="M256.926,253.618C255.454,258.784 249.818,270.863 250.268,293.507C250.916,326.124 268.769,347.33 271.94,351.096C284.765,366.331 308.929,376.862 312.517,378.425C312.258,378.594 311.894,377.972 311.635,378.14C308.578,380.13 491.257,446.926 494.492,440.496C494.903,442.57 494.694,442.532 495.66,444.454C495.66,444.454 504.268,487.981 549.012,526.937C581.263,555.016 607.106,564.831 613.48,566.935C613.016,567.879 746.903,713.329 763.689,721.057C775.187,726.35 776.708,723.832 780.567,728.688C763.247,728.317 737.265,728.525 733.499,728.556C686.128,728.935 559.62,728.512 544.5,728.461C461.521,728.184 421.572,731.494 371.403,711.796C244.49,661.963 218.761,568.104 214.736,552.99C178.475,416.835 255.324,252.411 255.366,252.412C256.023,252.431 256.269,253.599 256.926,253.618Z" style="fill:rgb(36,37,45);"/>
        <path d="M586.336,109.835C564.043,132.792 512.365,110.832 486.538,107.272C443.363,101.322 439.689,131.783 408.118,147.068C407.073,147.574 407.185,147.539 406.09,148.092C406.713,148.144 406.878,149.275 407.502,149.328C408.538,149.416 409.485,148.695 410.499,148.464C433.706,143.166 434.404,148.255 441.491,145.497C446.174,162.018 452.079,165.594 463.496,168.423C471.738,170.465 478.019,167.703 479.351,167.425C483.256,170.91 499.463,157.418 499.666,165.496C500.114,183.278 492.424,180.539 492.5,182.265C492.527,182.878 493.574,183.128 493.601,183.741C497.957,181.051 498.014,181.303 501.773,177.815C503.071,175.616 503.08,175.756 505.122,174.169C505.984,174.529 505.537,174.99 506.463,175.377C506.529,175.404 506.687,175.47 507.296,175.077C511.266,172.516 528.448,161.434 561.619,151.943C641.813,128.998 685.29,146.473 698.339,151.977C699.713,152.557 711.199,157.402 715.252,159.792L714.513,162.04C647.045,149.853 596.927,165.805 570.705,190.769C530.464,229.08 529.069,270.713 527.39,275.241C526.942,287.289 529.616,291.656 532.896,307.914C533.661,311.709 560.223,369.772 564.426,370.204C583.438,372.156 532.926,410.678 513.203,437.093C509.968,443.523 486.032,484.892 487.665,528.694C489.902,588.702 513.556,632.019 512.526,631.845C502.494,630.153 467.643,621.67 464.613,620.23C369.849,575.221 371.149,482.991 371.482,510.499C371.781,535.249 370.904,535.311 376.411,559.517C376.835,561.382 381.252,569.693 378.526,569.398C377.724,569.311 363.261,549.939 361.975,548.216C339.113,517.594 320.952,471.699 315.255,429.539C314.703,425.454 308.578,380.13 311.635,378.14C311.894,377.972 312.258,378.594 312.517,378.425C312.517,378.425 310.838,375.149 310.311,374.871C310.418,374.282 311.365,374.089 311.473,373.5C311.847,371.454 310.412,371.501 311.305,347.5C311.468,343.109 263.319,282.925 284.319,209.446C297.922,161.85 347.28,118.484 355.125,112.039C465.128,21.662 575.16,96.639 586.336,109.835Z" style="fill:rgb(94,98,98);"/>
        <path d="M586.336,109.835C566.169,137.046 513.641,114.66 487.814,111.101C444.638,105.15 446.493,130.507 414.922,145.792C413.877,146.298 404.309,148.598 397.481,153.712C392,157.818 390.122,162.107 381.225,171.742C375.305,178.154 363.952,187.783 355.227,208.548C338.016,249.511 343.655,283.729 338.391,323.948C332.477,369.127 330.838,400.616 333.499,429.355C339.343,492.474 364.167,541.845 378.511,570.456C380.358,574.141 288.932,490.357 258.07,437.687C238.253,403.868 232.281,358.596 234.928,322.064C234.703,321.824 236.388,283.551 276.177,206.941C298.993,163.011 333.502,131.636 355.125,112.039C460.615,16.432 575.16,96.639 586.336,109.835Z" style="fill:rgb(79,79,79);"/>
        <path d="M570.996,372.742C594,386.334 617.035,401.966 631.509,414.07C662.115,439.664 703.077,498.925 738.227,577.572C720.651,584.052 690.58,582.071 672.484,580.75C652.109,579.264 593.616,568.816 561.6,546.092C519.079,515.914 469.602,452.017 463.857,408.544C465.624,406.804 502.034,423.396 529.594,411.25C550.428,402.068 565.415,382.176 570.996,372.742Z" style="fill:rgb(97,93,94);"/>
        <path d="M613.48,566.935C618.099,568.409 652.109,579.264 672.484,580.75C690.58,582.071 720.651,584.052 738.227,577.572C738.338,577.825 761.142,625.141 775.405,691.521C783.117,727.413 781.382,727.822 780.567,728.688C776.708,723.832 775.187,726.35 763.689,721.057C746.903,713.329 663.195,676.545 617.768,579.366C612.699,568.521 613.016,567.879 613.48,566.935Z" style="fill:rgb(103,103,103);"/>
        <g transform="matrix(0.6263,0,0,0.6263,-177.242813,-110.855046)">
            <path d="M1009.591,400C1066.024,409.214 1121.585,425.192 1083.867,459.491C1046.308,493.646 1000.508,534.487 986.173,615.45C986.173,615.45 966.654,778.128 1085.476,839.472C1098.839,846.372 961.663,819.392 960,819C830.692,788.508 763.766,676.37 822,523C846.28,459.054 893.418,428.452 930.629,413.848C968.367,399.037 1009.591,400 1009.591,400Z" style="fill:rgb(136,136,136);"/>
        </g>
        <path d="M586.336,109.835L587.461,110.574C587.48,111.54 594.595,110.047 596.065,121.176C596.368,123.47 617.526,119.89 622.723,126.097C629.42,134.095 575.907,135.24 535.629,158.07C525.974,163.542 489.258,192.156 480.593,194.175C478.676,194.622 501.815,182.853 499.666,165.496C498.673,157.477 484.106,173.462 474.673,168.275C511.624,148.176 487.003,107.797 457.81,119.903C442.286,126.341 443.237,142.97 443.192,145.497C436.105,148.255 433.706,143.166 410.499,148.464C409.485,148.695 408.538,149.416 407.502,149.328C406.878,149.275 406.713,148.144 406.09,148.092C407.185,147.539 407.073,147.574 408.118,147.068C439.689,131.783 443.363,101.322 486.538,107.272C512.365,110.832 564.043,132.792 586.336,109.835Z" style="fill:rgb(36,37,45);"/>
        <g transform="matrix(0.6263,0,0,0.6263,-177.242813,-110.855046)">
            <path d="M1429.484,435.026C1435.043,439.308 1374.239,427.876 1349.253,428.198C1325.844,428.5 1314.165,427.831 1279.568,436.959C1254.801,443.493 1234.826,449.379 1194,483C1160,511 1148,546 1147,542C1148,546 1164.494,504.348 1140,484C1116.448,462.077 1076,473 1076,473L1095.008,454.965C1095.008,454.965 1128.909,431.312 1213,410C1250.413,400.518 1293.858,399.919 1316.9,400.506C1375.981,402.01 1423.925,430.744 1429.484,435.026Z" style="fill:rgb(36,37,45);"/>
        </g>
        <path d="M587.461,110.574C589.814,109.762 592.006,109.006 618.535,112.272C680.089,119.852 712.672,147.068 719.404,161.519C720.089,162.991 714.901,162.106 714.513,162.04L715.252,159.792C711.199,157.402 699.713,152.557 698.339,151.977C685.29,146.473 632.698,129.617 561.619,152.569C529.009,163.099 498.74,183.79 494.771,186.35L493.491,183.542C493.491,183.542 493.458,184.55 492.596,184.19C496.557,181.385 512.543,167.97 529.25,158.07C584.412,126.307 625.167,134.52 618.47,126.522C613.274,120.316 589.989,124.746 589.686,122.453C588.216,111.323 587.48,111.54 587.461,110.574Z" style="fill:rgb(83,89,94);"/>
        <g transform="matrix(2.846817,0,0,3.139849,-2986.709369,-163.155246)">
            <path d="M1160.617,115.891C1154.975,120.171 1147.933,135.735 1157.176,147.281C1166.551,158.992 1169.569,160.924 1182.865,164.708C1185.933,165.581 1166.392,169.368 1151.978,156.03C1143.549,148.231 1143.975,143.926 1143.975,143.926C1143.975,143.926 1142.877,158.286 1154.623,168.499C1163.596,176.3 1178.255,183.511 1178.255,183.511C1178.255,183.511 1160.89,186.619 1144.017,172.139C1130.559,160.59 1130.593,146.705 1134.558,130.636C1137.999,116.688 1145.578,106.462 1156.072,104.223C1156.567,108.307 1165.487,112.197 1160.617,115.891Z" style="fill:white;"/>
        </g>
        <g transform="matrix(1,0,0,1,1.700999,0.425363)">
            <path d="M573.506,376.924C573.506,376.924 576.47,384.982 570.273,396.366C562.941,409.834 541.308,434.105 501.708,429.86C449.725,424.288 436.784,392.875 445.782,399.979C459.568,410.864 512.581,415.91 513.54,415.805C555.028,411.265 571.747,377.643 573.506,376.924Z" style="fill:rgb(56,48,53);"/>
        </g>
        <path d="M441.491,145.497C441.536,142.97 441.861,124.64 457.385,118.202C486.577,106.095 516.301,147.325 479.351,167.425C478.019,167.703 471.738,170.465 463.496,168.423C452.079,165.594 446.174,162.018 441.491,145.497Z" style="fill:rgb(66,84,117);"/>
        <g transform="matrix(1,0,0,1,0,6.805805)">
            <path d="M527.39,275.241C531.37,277.559 564.198,286.446 575.902,323.375C585.008,352.109 573.002,374.207 573.039,374.5C573.11,375.076 555.028,411.265 513.54,415.805C512.581,415.91 512.647,415.83 501.489,416.143C497.286,415.711 470.239,412.934 451.869,398.04C429.45,379.863 427.049,361.611 425.447,351.506C425.389,351.085 424.199,342.465 426.626,346.334C434.247,358.485 475.291,367.71 487.696,329.569C492.982,313.318 485.34,291.376 468.246,282.938C464.75,281.212 460.915,281.034 464.43,279.414C496.022,264.858 523.965,274.528 527.39,275.241Z" style="fill:rgb(240,243,244);"/>
        </g>
        <g transform="matrix(1,0,0,1,0,6.805805)">
            <path d="M507.975,401.127C516.783,397.032 535.073,392.298 545.435,375.358C559.978,351.585 555.86,329.638 555.86,329.638C555.86,329.638 563.95,339.431 566.215,355.621C567.697,366.221 564.819,388.37 560.513,392.663C555.789,397.371 537.492,412.518 513.54,415.805C512.585,415.937 512.647,415.83 501.489,416.143C497.286,415.711 470.239,412.934 451.869,398.04C429.45,379.863 427.049,361.611 425.447,351.506C425.389,351.085 425.147,342.013 426.626,346.334C435.5,372.263 461.917,404.749 492.707,379.047C512.693,362.363 526.302,329.905 526.302,329.905C526.302,329.905 528.418,354.459 527.165,362.601C523.02,379.051 518.672,388.481 507.975,401.127Z" style="fill:rgb(210,219,227);"/>
        </g>
        <path d="M446.873,137.555C455.247,108.464 491.237,121.127 491.517,142.5C491.884,170.579 443.165,173.906 446.873,137.555Z" style="fill:rgb(34,35,36);"/>
        <path d="M315.625,182.994L352.895,187.96C352.865,188.287 332.443,218.16 334.395,251.509C337.501,304.567 387.806,311.326 394.579,312.304C395.799,312.48 397.166,312.879 397.168,312.888C397.204,313.188 396.465,313.201 396.502,313.5L396.349,314.217C393.62,314.2 372.839,314.073 362.607,309.195C324.717,291.131 310.16,240.307 309.119,214.236C308.597,201.17 312.74,193.137 315.625,182.994Z" style="fill:white;"/>
        <path d="M475.969,133.59C470.313,150.78 452.113,133.651 463.652,125.73C465.36,124.557 469.357,124.569 471.534,125.415C475.631,127.008 475.931,132.847 475.969,133.59Z" style="fill:rgb(251,251,252);"/>
    </g>
</svg>
