<?xml version="1.0" encoding="UTF-8" standalone="no"?>
<!DOCTYPE svg PUBLIC "-//W3C//DTD SVG 1.1//EN" "http://www.w3.org/Graphics/SVG/1.1/DTD/svg11.dtd">
<svg width="100%" height="100%" viewBox="0 0 1375 1560" version="1.1" xmlns="http://www.w3.org/2000/svg" xmlns:xlink="http://www.w3.org/1999/xlink" xml:space="preserve" xmlns:serif="http://www.serif.com/" style="fill-rule:evenodd;clip-rule:evenodd;stroke-linejoin:round;stroke-miterlimit:2;">
    <g transform="matrix(1,0,0,1,-1838.714133,-43.445515)">
        <g transform="matrix(1,0,0,1,1893,0)">
            <g id="bird" transform="matrix(2.380004,0,0,2.35244,-539.273349,-111.365843)">
                <path d="M586.336,109.835C564.043,132.792 512.365,110.832 486.538,107.272C443.363,101.322 439.689,131.783 408.118,147.068C407.073,147.574 407.185,147.539 406.09,148.092C406.713,148.144 406.878,149.275 407.502,149.328C408.538,149.416 409.485,148.695 410.499,148.464C433.706,143.166 434.404,148.255 441.491,145.497C446.174,162.018 452.079,165.594 463.496,168.423C471.738,170.465 478.019,167.703 479.351,167.425C483.256,170.91 499.463,157.418 499.666,165.496C500.114,183.278 492.424,180.539 492.5,182.265C492.527,182.878 493.574,183.128 493.601,183.741C497.957,181.051 498.014,181.303 501.773,177.815C503.071,175.616 503.08,175.756 505.122,174.169C505.984,174.529 505.537,174.99 506.463,175.377C506.529,175.404 506.687,175.47 507.296,175.077C511.266,172.516 528.448,161.434 561.619,151.943C641.813,128.998 685.29,146.473 698.339,151.977C699.713,152.557 711.199,157.402 715.252,159.792C715.252,159.792 714.572,161.86 714.513,162.04C647.045,149.853 596.927,165.805 570.705,190.769C530.464,229.08 529.069,270.713 527.39,275.241C523.965,274.528 496.022,264.858 464.43,279.414C460.915,281.034 464.75,281.212 468.246,282.938C485.34,291.376 492.982,313.318 487.696,329.569C475.291,367.71 434.247,358.485 426.626,346.334C424.199,342.465 425.389,351.085 425.447,351.506C427.049,361.611 429.45,379.863 451.869,398.04C470.239,412.934 497.286,415.711 501.489,416.143C495.512,426.61 497.63,427.267 494.492,440.496C491.257,446.926 469.363,532.816 508.927,619.296C514.275,630.985 513.556,632.019 512.526,631.845C502.494,630.153 476.573,617.841 473.543,616.402C378.779,571.393 371.149,482.991 371.482,510.499C371.781,535.249 370.904,535.311 376.411,559.517C376.835,561.382 381.252,569.693 378.526,569.398C377.724,569.311 363.261,549.939 361.975,548.216C339.113,517.594 320.952,471.699 315.255,429.539C314.703,425.454 308.578,380.13 311.635,378.14C311.894,377.972 312.258,378.594 312.517,378.425C313.869,378.875 315.22,379.324 316.571,379.773C318.525,380.301 318.611,380.758 319.304,380.116C320.113,379.366 319.205,379.447 316.907,378.32C314.745,377.205 310.838,375.149 310.311,374.871C310.418,374.282 311.365,374.089 311.473,373.5C311.847,371.454 310.412,371.501 311.305,347.5C311.468,343.109 310.503,342.661 313.563,339.391C337.143,351.372 353.69,350.058 370.408,350.241C370.551,350.035 370.693,349.828 370.835,349.621C370.61,349.381 371.525,348.991 371.3,348.751C371.246,348.693 360.797,347.799 359.626,347.693C295.598,341.887 263.319,282.925 284.319,209.446C297.922,161.85 347.28,118.484 355.125,112.039C465.128,21.662 575.16,96.639 586.336,109.835Z" style="fill:rgb(48,150,143);"/>
                <path d="M256.926,253.618C255.454,258.784 249.818,270.863 250.268,293.507C250.916,326.124 268.769,347.33 271.94,351.096C284.765,366.331 308.929,376.862 312.517,378.425C312.258,378.594 311.894,377.972 311.635,378.14C308.578,380.13 314.703,425.454 315.255,429.539C320.952,471.699 339.113,517.594 361.975,548.216C363.261,549.939 377.724,569.311 378.526,569.398C381.252,569.693 376.835,561.382 376.411,559.517C370.904,535.311 371.781,535.249 371.482,510.499C371.149,482.991 378.779,571.393 473.543,616.402C476.573,617.841 502.494,630.153 512.526,631.845C513.556,632.019 514.275,630.985 508.927,619.296C469.363,532.816 491.257,446.926 494.492,440.496C494.903,442.57 498.55,445.55 498.55,445.55C504.295,489.024 534.853,515.732 538.574,522.437C540.386,525.701 541.456,524.45 544.076,526.978C551.478,534.121 553.34,536.831 591.537,558.414C593.874,559.735 598.083,558.411 601.443,561.602C606.397,566.307 607.106,564.831 613.48,566.935C613.016,567.879 612.699,568.521 617.768,579.366C663.195,676.545 746.903,713.329 763.689,721.057C775.187,726.35 776.708,723.832 780.567,728.688C763.247,728.317 737.265,728.525 733.499,728.556C686.128,728.935 559.62,728.512 544.5,728.461C461.521,728.184 421.572,731.494 371.403,711.796C244.49,661.963 217.613,552.633 213.035,537.677C180.601,431.723 243.352,282.911 249,269.281C250.886,264.729 255.324,252.411 255.366,252.412C256.023,252.431 256.269,253.599 256.926,253.618Z" style="fill:rgb(25,51,96);"/>
                <path d="M586.336,109.835C564.043,132.792 512.365,110.832 486.538,107.272C443.363,101.322 439.689,131.783 408.118,147.068C407.073,147.574 407.185,147.539 406.09,148.092C406.713,148.144 396.857,153.66 397.481,153.712C398.517,153.8 390.122,162.107 381.225,171.742C375.305,178.154 363.952,187.783 355.227,208.548C338.016,249.511 343.655,283.729 338.391,323.948C332.477,369.127 330.838,400.616 333.499,429.355C339.343,492.474 364.167,541.845 378.511,570.456C380.358,574.141 288.932,490.357 258.07,437.687C238.253,403.868 232.281,358.596 234.928,322.064C234.703,321.824 236.388,283.551 276.177,206.941C298.993,163.011 333.502,131.636 355.125,112.039C460.615,16.432 575.16,96.639 586.336,109.835Z" style="fill:url(#_Radial1);"/>
                <path d="M591.833,390.182C606.757,401.647 606.403,401.966 620.877,414.07C651.483,439.664 703.077,498.925 738.227,577.572C686.626,593.548 640.254,577.113 612.689,567.727C588.848,559.608 575.96,552.02 564.649,544.386C556.711,539.028 541.248,527.207 534.618,520.063C525.203,509.917 503.504,495.354 496.176,445.55C499.278,442.495 500.755,445.131 511.488,444.323C551.203,441.333 575.273,420.043 582.605,406.574C588.802,395.191 587.801,394.655 591.833,390.182Z" style="fill:rgb(118,59,78);"/>
                <path d="M613.48,566.935C618.099,568.409 652.109,579.264 672.484,580.75C690.58,582.071 720.651,584.052 738.227,577.572C738.338,577.825 761.142,625.141 775.405,691.521C783.117,727.413 781.382,727.822 780.567,728.688C776.708,723.832 775.187,726.35 763.689,721.057C746.903,713.329 663.195,676.545 617.768,579.366C612.699,568.521 613.016,567.879 613.48,566.935Z" style="fill:rgb(48,138,129);"/>
                <g transform="matrix(0.6263,0,0,0.6263,-177.242813,-110.855046)">
                    <path d="M977,400C977,400 870.904,394.201 822,523C763.766,676.37 830.692,788.508 960,819C961.663,819.392 1098.839,846.372 1085.476,839.472C966.654,778.128 953.688,747.377 981.082,635.111C985.823,615.681 995,591 995,591C1024.951,512.753 1046.308,493.646 1083.867,459.491C1121.585,425.192 1033.432,409.214 977,400" style="fill:url(#_Radial2);"/>
                </g>
                <path d="M586.336,109.835C586.711,110.081 587.086,110.327 587.461,110.574C587.48,111.54 588.216,111.323 589.686,122.453C589.989,124.746 613.274,120.316 618.47,126.522C625.167,134.52 584.412,126.307 529.25,158.07C519.632,163.608 509.083,171.364 505.122,174.169C503.08,175.756 503.071,175.616 501.773,177.815C498.014,181.303 497.957,181.051 493.601,183.741C493.574,183.128 492.527,182.878 492.5,182.265C492.424,180.539 500.114,183.278 499.666,165.496C499.463,157.418 483.256,170.91 479.351,167.425C516.301,147.325 486.577,106.095 457.385,118.202C441.861,124.64 441.536,142.97 441.491,145.497C434.404,148.255 433.706,143.166 410.499,148.464C409.485,148.695 408.538,149.416 407.502,149.328C406.878,149.275 406.713,148.144 406.09,148.092C407.185,147.539 407.073,147.574 408.118,147.068C439.689,131.783 443.363,101.322 486.538,107.272C512.365,110.832 564.043,132.792 586.336,109.835Z" style="fill:rgb(7,17,64);"/>
                <g transform="matrix(0.6263,0,0,0.6263,-177.242813,-110.855046)">
                    <path d="M1429.484,435.026C1435.043,439.308 1374.239,427.876 1349.253,428.198C1325.844,428.5 1314.165,427.831 1279.568,436.959C1254.801,443.493 1234.826,449.379 1194,483C1160,511 1148,546 1147,542C1148,546 1164.494,504.348 1140,484C1116.448,462.077 1076,473 1076,473L1095.008,454.965C1095.008,454.965 1128.909,431.312 1213,410C1250.413,400.518 1293.858,399.919 1316.9,400.506C1375.981,402.01 1423.925,430.744 1429.484,435.026Z" style="fill:url(#_Radial3);"/>
                </g>
                <path d="M587.461,110.574C589.814,109.762 592.006,109.006 618.535,112.272C680.089,119.852 712.672,147.068 719.404,161.519C720.089,162.991 714.901,162.106 714.513,162.04C714.572,161.86 715.252,159.792 715.252,159.792C711.199,157.402 699.713,152.557 698.339,151.977C685.29,146.473 632.698,129.617 561.619,152.569C529.009,163.099 498.74,183.79 494.771,186.35L493.491,183.542C493.491,183.542 493.458,184.55 492.596,184.19C496.557,181.385 512.543,167.97 529.25,158.07C584.412,126.307 625.167,134.52 618.47,126.522C613.274,120.316 589.989,124.746 589.686,122.453C588.216,111.323 587.48,111.54 587.461,110.574Z" style="fill:rgb(113,135,154);"/>
                <g transform="matrix(2.846817,0,0,3.139849,-2986.709369,-163.155246)">
                    <path d="M1152.7,117.787C1150.909,124.257 1143.703,140.681 1153.442,151.887C1159.381,158.721 1170.615,162.821 1177.935,164.302C1181.074,164.937 1161.911,165.71 1151.978,156.03C1143.775,148.035 1142.183,136.882 1142.183,136.882C1142.183,136.882 1141.413,141.457 1141.886,145.002C1143.131,154.329 1144.616,162.006 1152.98,167.415C1157.511,170.345 1165.265,173.126 1163.168,173.215C1156.874,173.485 1147.636,168.84 1140.88,159.676C1135.692,152.639 1135.749,143.84 1138.591,133.481C1141.188,124.013 1147.52,110.797 1156.072,104.223C1156.567,108.307 1153.835,113.687 1152.7,117.787Z" style="fill:white;"/>
                </g>
                <path d="M573.506,376.924C583.104,382.943 582.877,383.157 591.833,390.182C590.967,396.238 588.802,399.938 584.188,406.574C575.433,419.164 552.786,442.915 513.071,445.905C502.337,446.713 500.861,446.451 496.176,445.55L495.66,444.454C494.694,442.532 494.903,442.57 494.492,440.496C497.63,427.267 495.512,426.61 501.489,416.143C512.647,415.83 512.581,415.91 513.54,415.805C555.028,411.265 571.747,377.643 573.506,376.924Z" style="fill:rgb(83,43,69);"/>
                <path d="M441.491,145.497C441.536,142.97 441.861,124.64 457.385,118.202C486.577,106.095 516.301,147.325 479.351,167.425C478.019,167.703 471.738,170.465 463.496,168.423C452.079,165.594 446.174,162.018 441.491,145.497Z" style="fill:rgb(66,84,117);"/>
                <path d="M527.39,275.241C531.37,277.559 564.198,286.446 575.902,323.375C585.008,352.109 573.002,374.207 573.039,374.5C573.11,375.076 555.028,411.265 513.54,415.805C512.581,415.91 512.647,415.83 501.489,416.143C497.286,415.711 470.239,412.934 451.869,398.04C429.45,379.863 427.049,361.611 425.447,351.506C425.389,351.085 424.199,342.465 426.626,346.334C434.247,358.485 475.291,367.71 487.696,329.569C492.982,313.318 485.34,291.376 468.246,282.938C464.75,281.212 460.915,281.034 464.43,279.414C496.022,264.858 523.965,274.528 527.39,275.241Z" style="fill:rgb(240,243,244);"/>
                <path d="M507.975,401.127C516.783,397.032 535.073,392.298 545.435,375.358C559.978,351.585 555.86,329.638 555.86,329.638C555.86,329.638 563.95,339.431 566.215,355.621C567.697,366.221 564.819,388.37 560.513,392.663C555.789,397.371 537.492,412.518 513.54,415.805C512.585,415.937 512.647,415.83 501.489,416.143C497.286,415.711 470.239,412.934 451.869,398.04C429.45,379.863 427.049,361.611 425.447,351.506C425.389,351.085 425.147,342.013 426.626,346.334C435.5,372.263 461.917,404.749 492.707,379.047C512.693,362.363 526.302,329.905 526.302,329.905C526.302,329.905 528.418,354.459 527.165,362.601C523.02,379.051 518.672,388.481 507.975,401.127Z" style="fill:rgb(210,219,227);"/>
                <path d="M446.873,137.555C455.247,108.464 491.237,121.127 491.517,142.5C491.884,170.579 443.165,173.906 446.873,137.555Z" style="fill:rgb(7,15,63);"/>
                <path d="M334.761,221.702L336.31,221.564C336.28,221.891 332.869,236.45 334.395,251.509C339.756,304.387 387.806,311.326 394.579,312.304C395.799,312.48 397.166,312.879 397.168,312.888C397.204,313.188 396.465,313.201 396.502,313.5L396.349,314.217C393.62,314.2 372.839,314.073 362.607,309.195C305.729,282.078 331.215,231.697 334.761,221.702Z" style="fill:rgb(241,251,251);"/>
                <path d="M475.969,133.59C470.313,150.78 452.113,133.651 463.652,125.73C465.36,124.557 469.357,124.569 471.534,125.415C475.631,127.008 475.931,132.847 475.969,133.59Z" style="fill:rgb(251,251,252);"/>
            </g>
        </g>
    </g>
    <defs>
        <radialGradient id="_Radial1" cx="0" cy="0" r="1" gradientUnits="userSpaceOnUse" gradientTransform="matrix(123.38104,-486.634862,463.701017,117.56641,349.475229,522.333945)"><stop offset="0" style="stop-color:rgb(31,51,99);stop-opacity:1"/><stop offset="0.57" style="stop-color:rgb(35,101,156);stop-opacity:1"/><stop offset="1" style="stop-color:rgb(40,151,145);stop-opacity:1"/></radialGradient>
        <radialGradient id="_Radial2" cx="0" cy="0" r="1" gradientUnits="userSpaceOnUse" gradientTransform="matrix(-247,434,-434,-247,898,658)"><stop offset="0" style="stop-color:rgb(45,119,126);stop-opacity:1"/><stop offset="1" style="stop-color:rgb(44,76,101);stop-opacity:1"/></radialGradient>
        <radialGradient id="_Radial3" cx="0" cy="0" r="1" gradientUnits="userSpaceOnUse" gradientTransform="matrix(-225,126,-126,-225,1295,414)"><stop offset="0" style="stop-color:rgb(6,18,64);stop-opacity:1"/><stop offset="1" style="stop-color:rgb(8,28,101);stop-opacity:1"/></radialGradient>
    </defs>
</svg>
