<?xml version="1.0" encoding="UTF-8" standalone="no"?>
<!DOCTYPE svg PUBLIC "-//W3C//DTD SVG 1.1//EN" "http://www.w3.org/Graphics/SVG/1.1/DTD/svg11.dtd">
<svg width="100%" height="100%" viewBox="0 0 394 118" version="1.1" xmlns="http://www.w3.org/2000/svg" xmlns:xlink="http://www.w3.org/1999/xlink" xml:space="preserve" xmlns:serif="http://www.serif.com/" style="fill-rule:evenodd;clip-rule:evenodd;stroke-linejoin:round;stroke-miterlimit:2;">
    <g transform="matrix(1,0,0,1,-3.367936,-7.002197)">
        <g transform="matrix(0.472016,0,0,0.472118,-187.264552,-567.211205)">
            <g transform="matrix(0.815809,0,0,0.815809,-38.192676,670.452295)">
                <g transform="matrix(340,0,0,340,1578.528825,966.743931)">
                </g>
                <text x="510.929px" y="966.744px" style="font-family:'Avenir-Medium', 'Avenir';font-weight:500;font-size:340px;fill:white;">K<tspan x="751.649px 1048.129px 1295.649px " y="966.744px 966.744px 966.744px ">OKO</tspan></text>
            </g>
        </g>
        <g transform="matrix(0.472016,0,0,0.472118,-187.264552,-567.211205)">
            <g transform="matrix(0.800346,0,0,0.800346,-540.649532,475.34817)">
                <path d="M1620.295,965.993L1450.273,965.993L1450.273,925.726C1494.114,936.558 1620.295,939.47 1620.295,939.47L1620.295,965.993Z" style="fill:white;fill-rule:nonzero;"/>
            </g>
        </g>
        <g transform="matrix(0.472016,0,0,0.472118,-187.264552,-567.211205)">
            <g transform="matrix(-0.800346,0,0,0.800346,2361.623072,476.34817)">
                <path d="M1620.295,965.993L1450.273,965.993L1450.273,925.726C1494.114,936.558 1620.295,939.47 1620.295,939.47L1620.295,965.993Z" style="fill:white;fill-rule:nonzero;"/>
            </g>
        </g>
    </g>
</svg>
